<?xml version="1.0" standalone="no"?>
<!DOCTYPE svg PUBLIC "-//W3C//DTD SVG 1.1//EN" "http://www.w3.org/Graphics/SVG/1.1/DTD/svg11.dtd">
<svg xmlns="http://www.w3.org/2000/svg" xmlns:xlink="http://www.w3.org/1999/xlink" version="1.1" id="katman_1" x="0px" y="0px" viewBox="0 0 1000 1000" style="enable-background:new 0 0 1000 1000;" xml:space="preserve" width="1000" height="1000">
<style type="text/css">
	.st0{fill:#FFB500;}
	.st1{fill:#E69800;}
</style>
<g>
	<path class="st0" d="M712.85,392.4c0.23-0.02,0.45-0.07,0.68-0.09c0.27-0.05,0.57-0.09,0.84-0.14   C713.85,392.22,713.35,392.31,712.85,392.4z M607.96,284.63c-0.02,0.25-0.05,0.5-0.09,0.75c0.05-0.25,0.07-0.5,0.11-0.75   c0.05-0.34,0.09-0.7,0.14-1.04C608.05,283.93,608.01,284.29,607.96,284.63z M606.9,291.43c-0.02,0.14-0.05,0.25-0.05,0.36   c0.09-0.52,0.18-1.02,0.25-1.52C607.03,290.66,606.96,291.05,606.9,291.43z M402.62,609.26c0.52,0.14,1.04,0.23,1.59,0.3   c0.86,0.11,1.72,0.23,2.58,0.32L402.62,609.26z"/>
	<path class="st0" d="M759.07,371.36c-0.02-0.25-0.07-0.5-0.14-0.73c0-0.05,0-0.09-0.02-0.14c-0.07-0.34-0.16-0.68-0.25-1   c-0.75-2.74-2.22-5.19-4.22-7.12c-0.32-0.34-0.68-0.66-1.04-0.95c-0.02-0.02-0.05-0.02-0.07-0.05c-0.39-0.32-0.79-0.61-1.2-0.88   c-0.43-0.29-0.86-0.54-1.29-0.77c-0.41-0.23-0.79-0.41-1.22-0.59c-0.43-0.18-0.86-0.36-1.34-0.5c-0.27-0.09-0.54-0.18-0.82-0.23   c-0.29-0.09-0.61-0.16-0.93-0.23c-0.45-0.11-0.93-0.18-1.43-0.23c-0.11,0-0.23-0.02-0.36-0.02c-0.57-0.07-1.16-0.09-1.75-0.07   c-3.04,0.07-6.08,0.2-9.14,0.39c-1.86,0.11-3.74,0.25-5.62,0.39c-1.86,0.16-3.74,0.34-5.62,0.52c-2.02,0.2-4.06,0.43-6.08,0.68   c-1.74,0.23-3.47,0.45-5.21,0.7c-0.07,0-0.11,0.02-0.18,0.02c-0.09,0-0.18,0.02-0.27,0.05c-0.66,0.07-1.29,0.18-1.93,0.27   c-0.43,0.07-0.86,0.14-1.29,0.2c-0.09,0.02-0.18,0.02-0.27,0.05c-1.11,0.18-2.24,0.36-3.38,0.54c-0.79,0.14-1.61,0.27-2.4,0.41   c-1.34,0.23-2.67,0.5-4.01,0.75c-1.54,0.29-3.06,0.59-4.6,0.91c-0.2,0.05-0.43,0.09-0.64,0.14c-1.25,0.27-2.49,0.54-3.74,0.84   c-0.52,0.11-1.04,0.23-1.54,0.34c-1.47,0.34-2.97,0.68-4.44,1.04c-0.29,0.07-0.61,0.16-0.91,0.23c-0.88,0.2-1.75,0.43-2.63,0.66   c-1.7,0.43-3.42,0.88-5.12,1.34c-0.09,0.02-0.18,0.05-0.27,0.07c-1.52,0.43-3.01,0.86-4.51,1.29h-0.02c-0.02,0-0.05,0.02-0.05,0.02   s0-0.02-0.02-0.02c-2.58-5.28-5.65-10.2-9.16-14.78c-0.54-0.7-1.09-1.38-1.68-2.06c0,0,0,0-0.02,0c-1.63-1.99-3.38-3.92-5.21-5.78   c-1.86-1.86-3.81-3.65-5.85-5.3c-0.14,0.39-0.25,0.75-0.36,1.13c-0.14,0.48-0.29,0.93-0.45,1.38c-0.52,1.72-1.09,3.47-1.7,5.21   l-0.48,1.5c-0.14,0.39-0.32,0.93-0.52,1.47c-2.58,7.46-5.44,14.87-8.57,22.22v0.02c0.07,0.07,0.11,0.11,0.16,0.18   c0.05,0.07,0.09,0.14,0.14,0.2c0.54,0.68,1.04,1.38,1.52,2.11c0.07,0.07,0.11,0.16,0.18,0.25c0.48,0.73,0.95,1.47,1.41,2.24   c0.11,0.16,0.2,0.34,0.29,0.5c0.16,0.25,0.29,0.5,0.43,0.75c0.36,0.63,0.73,1.29,1.04,1.95c0.32,0.64,0.64,1.27,0.93,1.93   c0.34,0.7,0.66,1.43,0.98,2.15c0.29,0.73,0.59,1.47,0.88,2.22c0.27,0.75,0.54,1.5,0.82,2.27c0.25,0.79,0.5,1.56,0.73,2.36   c0.02,0.02,0.02,0.02,0.02,0.05c0.52,1.88,1.02,3.81,1.43,5.8c0.72,3.6,1.22,7.34,1.47,11.24c0.45,6.73,0.16,13.9-0.79,21.33   c-2.04,15.82-7.16,32.96-15.07,50.33c0,0.02-0.02,0.02-0.02,0.05c-6.66-18.09-15.75-34.73-27.13-49.78   c-0.23-0.34-0.48-0.66-0.73-0.98c-0.73-0.93-1.43-1.86-2.15-2.79c-0.05-0.09-0.14-0.18-0.2-0.27c-0.3-0.41-0.61-0.79-0.95-1.18   c-0.36-0.43-0.7-0.84-1.06-1.27c-1.2-1.47-2.45-2.92-3.69-4.35c-0.18-0.23-0.36-0.43-0.57-0.66c-0.25-0.29-0.5-0.59-0.77-0.88   c-0.2-0.23-0.41-0.45-0.61-0.66c-0.45-0.52-0.91-1.02-1.38-1.52c-0.25-0.27-0.5-0.54-0.75-0.82c-1.16-1.25-2.31-2.45-3.49-3.65   c-0.14-0.16-0.29-0.32-0.45-0.48c-0.14-0.16-0.29-0.32-0.45-0.48c-0.16-0.16-0.34-0.34-0.5-0.48c-0.16-0.16-0.32-0.32-0.48-0.45   c-1.22-1.2-2.45-2.38-3.7-3.54c-0.25-0.23-0.5-0.48-0.75-0.7c-0.02,0-0.05,0-0.07-0.05c-0.2-0.2-0.39-0.39-0.59-0.57   c-0.77-0.7-1.54-1.38-2.34-2.09c-0.07-0.07-0.18-0.16-0.27-0.23c-0.48-0.43-0.95-0.84-1.43-1.25c-0.52-0.45-1.04-0.91-1.56-1.34   c-1.11-0.95-2.22-1.88-3.36-2.77c-0.27-0.23-0.54-0.45-0.82-0.66c-0.82-0.66-1.63-1.29-2.47-1.93c-0.25-0.23-0.52-0.43-0.82-0.63   c-0.27-0.23-0.57-0.43-0.86-0.63c0,0-0.02,0-0.02-0.02c-0.48-0.39-0.97-0.75-1.47-1.11c-0.29-0.23-0.59-0.43-0.88-0.66   c-1.11-0.82-2.24-1.61-3.38-2.4c-1.27-0.88-2.54-1.72-3.83-2.58c-2.38-1.56-4.81-3.11-7.25-4.56c-0.43-0.25-0.86-0.5-1.29-0.75   c-2.04-1.2-4.1-2.36-6.21-3.49c-0.07-0.05-0.14-0.07-0.2-0.11c-0.52-0.29-1.04-0.57-1.56-0.82c-0.95-0.5-1.9-1-2.86-1.5   c-1.29-0.63-2.58-1.29-3.9-1.9c-0.02-0.02-0.07-0.02-0.09-0.05c-0.75-0.36-1.5-0.7-2.24-1.04c-0.75-0.36-1.5-0.68-2.27-1.02   c-0.27-0.14-0.54-0.25-0.82-0.36c-0.63-0.29-1.25-0.57-1.88-0.84c-0.09-0.05-0.18-0.07-0.27-0.11c-0.48-0.2-0.97-0.43-1.47-0.63   c-0.77-0.32-1.54-0.66-2.33-0.95c-0.95-0.39-1.93-0.77-2.9-1.13c-0.84-0.34-1.7-0.66-2.56-1c-0.07-0.02-0.11-0.05-0.18-0.07   c-0.02-0.02-0.02-0.02-0.05-0.02c17.43-7.96,34.64-13.1,50.51-15.14c7.44-0.95,14.6-1.22,21.33-0.79c3.88,0.25,7.62,0.75,11.2,1.47   c2.02,0.41,3.94,0.88,5.85,1.45c0.25,0.07,0.48,0.14,0.73,0.2c2.88,0.88,5.6,1.93,8.18,3.15c0.68,0.32,1.36,0.63,2.02,0.97   c0.93,0.48,1.84,0.98,2.72,1.5c2.04-5.08,3.97-10.2,5.74-15.32c0.07-0.2,0.14-0.39,0.18-0.57c0.05-0.11,0.09-0.25,0.14-0.36   l0.54-1.63c0.02-0.07,0.05-0.11,0.07-0.18c0.54-1.61,1.06-3.22,1.56-4.83c0.36-1.09,0.68-2.2,1.02-3.29   c0.23-0.7,0.43-1.43,0.64-2.13c0.2-0.68,0.41-1.38,0.61-2.06h-0.02c0.45-1.54,0.88-3.11,1.34-4.65c0.02-0.02,0.02-0.07,0.02-0.11   c0.43-1.59,0.86-3.17,1.27-4.76c0.82-3.17,1.56-6.35,2.29-9.52c1.36-6.03,2.52-12.06,3.49-18.07c0.16-0.98,0.32-1.93,0.43-2.9   c0.14-0.86,0.27-1.72,0.39-2.58c0.18-1.27,0.34-2.54,0.5-3.79c0.07-0.57,0.16-1.16,0.23-1.72c0.02-0.11,0.02-0.23,0.02-0.34   c0.07-0.48,0.11-0.95,0.18-1.43c0.09-0.73,0.16-1.43,0.23-2.15c0.14-1.18,0.25-2.36,0.36-3.51c0-0.04,0.02-0.07,0-0.09   c0.07-0.59,0.11-1.18,0.16-1.77c0.02-0.18,0.05-0.36,0.05-0.54c0.02-0.07,0.02-0.16,0.02-0.23c0.07-0.66,0.11-1.32,0.16-1.97   c0.11-1.29,0.2-2.58,0.27-3.88c0.2-3.29,0.34-6.57,0.43-9.84c0.2-8.77-6.71-16.05-15.48-16.25c-1.22-0.02-2.4,0.07-3.54,0.32   c-0.52,0.09-1,0.23-1.5,0.36c-1.47,0.45-2.86,1.11-4.1,1.93c-0.84,0.57-1.63,1.2-2.33,1.9c-2.86,2.79-4.67,6.64-4.78,10.95   c-0.05,2.02-0.14,4.04-0.25,6.05c-0.02,1-0.09,2-0.16,3.02c-0.07,1.02-0.14,2.04-0.2,3.06c-0.11,1.36-0.23,2.7-0.34,4.06   c-0.09,1.04-0.2,2.09-0.32,3.13c-0.02,0.09-0.02,0.18-0.02,0.27c-0.05,0.23-0.07,0.45-0.09,0.68c-0.09,0.91-0.2,1.81-0.32,2.72   c-0.02,0.2-0.05,0.41-0.07,0.63c-0.02,0.2-0.05,0.41-0.09,0.63c-0.14,1.04-0.25,2.09-0.41,3.13c-0.05,0.34-0.09,0.7-0.14,1.04   c-0.05,0.25-0.07,0.5-0.11,0.75c-0.05,0.25-0.07,0.5-0.11,0.75c-0.02,0.11-0.05,0.23-0.05,0.36c-0.05,0.32-0.09,0.64-0.16,0.98   c-0.11,0.86-0.25,1.72-0.41,2.58c-0.02,0.07-0.02,0.16-0.05,0.23c-0.07,0.5-0.16,1-0.25,1.52c-0.09,0.59-0.2,1.2-0.32,1.81   c-0.09,0.57-0.2,1.13-0.32,1.72c-0.18,0.97-0.36,1.95-0.57,2.9c-0.32,1.56-0.63,3.15-0.97,4.72c-0.14,0.63-0.29,1.29-0.43,1.95   c-1.27,5.58-2.72,11.2-4.35,16.8c-6.35-0.88-12.94-1.27-19.72-1.11h-0.02c-33.46,0.57-71.54,13.26-108.45,36.54   c-9.61-1.32-19.45-2.11-29.45-2.29c-1.93-0.05-3.85-0.05-5.8-0.05c-0.43,0-0.86,0.02-1.27,0.05   c-51.21,1.9-99.09,15.26-134.84,37.63c-38.42,24.05-59.6,56.38-59.6,90.99c0,15.37,4.17,30.38,12.4,44.54   c0.07,0.14,0.16,0.25,0.23,0.39c4.85,8.27,11.06,16.21,18.5,23.64c11.11,11.11,24.94,21.13,41.05,29.67   c9.7,5.12,20.29,9.72,31.46,13.69c9.07,3.2,18.45,5.96,28.16,8.27c6.46,1.54,13.06,2.9,19.77,4.04l10.32,1.54l4.17,0.61l0.39,0.07   c0.57,0.07,1.11,0.14,1.68,0.2c5.44,0.64,10.93,1.13,16.44,1.5c0-0.02,0-0.02,0-0.05c0.11,0.02,0.2,0.02,0.32,0.02   c0.14,0,0.27,0.02,0.39,0.02c0.48,0.05,0.95,0.05,1.43,0.07c0.84,0.07,1.7,0.09,2.54,0.14c1.11,0.05,2.2,0.11,3.29,0.16   c1.2,0.05,2.38,0.14,3.58,0.18h0.18c3.67,0.11,7.37,0.18,11.04,0.18h1.38c2.13-0.02,4.22-0.04,6.21-0.09   c2.45-0.05,4.81-0.14,7.12-0.25c7.82-0.34,15.64-0.93,23.24-1.79h0.02c7.03-0.79,13.92-1.81,20.72-3.01   c3.38-0.61,6.73-1.27,10.07-1.97c6.64-1.43,13.15-3.06,19.52-4.9c0.41-0.11,0.77-0.25,1.18-0.36c9.11-2.67,17.95-5.76,26.43-9.27   c0,0,0,0,0.02,0c2.49-1.04,4.94-2.11,7.34-3.2c0.82-0.36,1.59-0.75,2.38-1.13c1.61-0.75,3.2-1.47,4.74-2.24   c0.91-0.45,1.81-0.93,2.7-1.41c1.41-0.7,2.81-1.43,4.17-2.18c0.91-0.5,1.81-1.02,2.72-1.52c1.32-0.75,2.61-1.47,3.88-2.22   l2.65-1.63c1.25-0.75,2.47-1.52,3.67-2.31c0.86-0.54,1.7-1.11,2.54-1.68c1.2-0.79,2.36-1.61,3.51-2.43   c0.82-0.57,1.61-1.16,2.43-1.75c1.11-0.82,2.22-1.68,3.33-2.52c0.77-0.61,1.54-1.2,2.29-1.81c0.39-0.29,0.77-0.59,1.16-0.88v0.07   c0,0.84,0,1.68-0.02,2.54c-0.32,7.73-0.91,15.35-1.81,22.78c-9.32,79.21-49.53,140.32-95.1,140.32c-9.59,0-19.11-2.68-28.31-7.93   c-0.11-0.07-0.23-0.14-0.34-0.2c-15.62-9.02-29.97-25.32-41.53-47.17c-4.42-8.3-8.39-17.43-11.83-27.18   c-1.59-4.51-3.06-9.11-4.42-13.81c-7.77-0.39-15.62-1.04-23.44-1.95c-1.13-0.11-2.29-0.27-3.45-0.41l-1.38-0.18   c-1.88-0.25-3.72-0.63-5.49-1.16c2.29,9.66,5.06,19.04,8.25,28.09c3.97,11.22,8.59,21.81,13.72,31.44   c8.52,16.14,18.57,29.99,29.65,41.1c7.46,7.46,15.39,13.67,23.67,18.5c0.14,0.07,0.27,0.16,0.39,0.23   c14.21,8.21,29.17,12.38,44.52,12.38c34.48,0,65.56-20.86,88.55-55.49c22.99-34.64,37.9-83.08,40.08-138.33   c0.02-0.16,0.02-0.34,0.02-0.52c0.02-2.33,0.02-4.67-0.02-7c-0.16-10-0.95-19.88-2.29-29.54v-0.07   c23.26-36.88,35.95-74.99,36.54-108.45c-0.45,0.14-0.88,0.27-1.34,0.41c-0.11,0.05-0.23,0.09-0.34,0.11   c-0.25,0.09-0.52,0.18-0.79,0.25c-1.25,0.39-2.45,0.79-3.67,1.2c-0.32,0.11-0.61,0.23-0.93,0.32l-0.43,0.14   c-0.25,0.09-0.5,0.18-0.75,0.27c-8.14,2.79-16.32,6.01-24.39,9.66c0.98-7.44,1.25-14.6,0.79-21.33c5.6-2.33,11.22-4.44,16.82-6.37   c0.2-0.05,0.41-0.11,0.61-0.18c4.44-1.54,8.89-2.92,13.31-4.19c0.02-0.02,0.02-0.02,0.05-0.02c6.28-1.84,12.54-3.42,18.77-4.76   c1.34-0.29,2.68-0.59,4.04-0.86c-1.84,0.34-3.67,0.73-5.49,1.13c1.9-0.43,3.83-0.84,5.74-1.2h0.02c0.2-0.02,0.39-0.07,0.59-0.11   c0.88-0.16,1.79-0.36,2.68-0.52c2.72-0.52,5.44-0.97,8.16-1.38c0.5-0.09,1-0.18,1.52-0.23c1.5-0.25,2.99-0.45,4.49-0.63   c0.88-0.11,1.74-0.23,2.63-0.32c1.45-0.18,2.88-0.34,4.33-0.48c1.16-0.11,2.31-0.23,3.49-0.32c1.47-0.14,2.97-0.25,4.47-0.34   c1.43-0.11,2.88-0.2,4.31-0.25c1.9-0.11,3.81-0.18,5.71-0.23c0.43,0,0.86-0.05,1.27-0.09c0.18-0.02,0.36-0.05,0.54-0.07   c0.39-0.05,0.77-0.11,1.13-0.2c0.18-0.05,0.36-0.07,0.54-0.14c0.07,0,0.14-0.02,0.2-0.05c0.16-0.02,0.29-0.07,0.43-0.14   c0.11,0,0.2-0.02,0.29-0.09c0.18-0.05,0.36-0.11,0.54-0.18c0.05,0,0.07,0,0.09-0.02c0.23-0.07,0.45-0.16,0.68-0.27   c0.02,0,0.05,0,0.07-0.02c0.18-0.07,0.34-0.14,0.52-0.23c0.27-0.11,0.54-0.25,0.82-0.41c0.23-0.14,0.45-0.25,0.66-0.39   c0.36-0.2,0.7-0.43,1.04-0.68c0.36-0.25,0.7-0.52,1.02-0.79c0.39-0.34,0.75-0.68,1.11-1.04c0.39-0.39,0.77-0.82,1.09-1.25   c0.27-0.34,0.54-0.7,0.77-1.07c0.27-0.39,0.5-0.79,0.73-1.2c0.18-0.32,0.34-0.66,0.48-1c0.14-0.25,0.25-0.5,0.34-0.75   c0.16-0.36,0.29-0.75,0.41-1.16c0.14-0.48,0.27-0.97,0.36-1.5c0.25-1.13,0.34-2.31,0.32-3.54   C759.23,372.68,759.19,372,759.07,371.36z M417.27,418.88c-0.45,0.88-0.93,1.79-1.38,2.7c-0.79,1.56-1.54,3.17-2.29,4.78   c-0.36,0.77-0.75,1.54-1.11,2.31c-1.09,2.43-2.15,4.87-3.2,7.39c-7.35,17.7-12.85,36.88-16.5,57.19c-1.2,6.78-2.2,13.67-2.99,20.67   c-0.43,3.79-0.82,7.64-1.11,11.54c-0.29,3.88-0.54,7.78-0.7,11.67c-0.07,1.18-0.11,2.36-0.16,3.56c-0.11,3.6-0.18,7.32-0.18,11.24   c0,3.76,0.07,7.53,0.18,11.27c0.05,1.34,0.14,2.67,0.2,4.01c0.02,0.63,0.05,1.25,0.09,1.88c0.05,1.16,0.11,2.31,0.18,3.45   c0.02,0.61,0.05,1.25,0.09,1.86v0.29c-6.66-1.36-13.19-2.97-19.54-4.81c-4.72-1.34-9.34-2.81-13.87-4.42   c-9.7-3.45-18.88-7.44-27.23-11.83c-21.78-11.54-38.08-25.89-47.13-41.53c-0.07-0.11-0.14-0.25-0.2-0.36   c-5.26-9.18-7.93-18.7-7.93-28.29c0-45.7,61.14-85.87,140.48-95.12c7.71-0.91,15.6-1.52,23.6-1.81h1.65   c-0.29,0.36-0.59,0.75-0.88,1.11c-0.63,0.79-1.25,1.61-1.88,2.4c-0.82,1.07-1.63,2.13-2.43,3.22c-0.61,0.84-1.22,1.68-1.84,2.54   c-0.79,1.11-1.56,2.24-2.31,3.38c-0.61,0.88-1.2,1.77-1.77,2.67c-0.77,1.16-1.52,2.36-2.24,3.54c-0.36,0.59-0.73,1.18-1.06,1.77   c-0.23,0.34-0.41,0.66-0.61,1c-0.64,1.07-1.27,2.15-1.86,3.26c-0.11,0.18-0.2,0.36-0.32,0.54c-0.52,0.91-1.04,1.81-1.56,2.77   c-0.57,1.02-1.09,2.04-1.61,3.08C417.63,418.15,417.45,418.52,417.27,418.88z M471.49,579.72c-3.36,0.25-6.76,0.45-10.18,0.61   c-1.04,0.05-2.09,0.09-3.17,0.14c-3.2,0.09-6.53,0.16-10.09,0.16c-2.97,0-5.92-0.07-8.89-0.14c-0.79-0.02-1.59-0.07-2.38-0.09   c-2.61-0.09-5.19-0.23-7.78-0.39c-0.41-0.02-0.82-0.02-1.2-0.07c-2.4-0.14-4.81-0.36-7.19-0.57c-0.09-0.86-0.16-1.72-0.23-2.58   c-0.14-1.5-0.27-2.99-0.36-4.51c-0.02-0.36-0.02-0.75-0.05-1.11c-0.05-0.59-0.07-1.16-0.09-1.75c-0.14-2.04-0.23-4.08-0.29-6.14   c-0.05-0.79-0.07-1.56-0.09-2.36c-0.09-2.99-0.14-5.98-0.14-8.98c0-2.36,0.02-4.62,0.07-6.85s0.14-4.38,0.23-6.53   c0.16-3.35,0.36-6.73,0.61-10.07c13.22-2.52,24.69-1.9,33.42,1.7c0.75,0.32,1.47,0.63,2.18,0.97c0.43,0.2,0.86,0.43,1.27,0.66   c0.84,0.45,1.63,0.95,2.4,1.47c1.43,1,2.74,2.09,3.94,3.29c0.79,0.79,1.54,1.63,2.24,2.54c0.29,0.39,0.59,0.79,0.88,1.2   c0.54,0.77,1.04,1.56,1.5,2.4C473.15,551.81,474.35,564.67,471.49,579.72z M536.55,567.05c-0.32,0.11-0.61,0.23-0.93,0.32   c-2.58,0.84-5.17,1.63-7.8,2.4c-0.84,0.23-1.68,0.45-2.52,0.68c-1.84,0.52-3.67,1.02-5.51,1.5c-1.04,0.25-2.06,0.5-3.11,0.75   c-1.7,0.41-3.42,0.82-5.15,1.18c-1.09,0.25-2.2,0.48-3.29,0.7c-1.34,0.29-2.67,0.54-4.01,0.77c-0.02,0.02-0.05,0.02-0.07,0.02   c2.22-21.2-1.79-39.6-11.86-53.68c0-0.02-0.02-0.02-0.05-0.04c-0.95-1.31-1.95-2.61-3.02-3.85c-1.04-1.25-2.18-2.45-3.33-3.63   c-1.81-1.81-3.72-3.49-5.71-5.01c-1.47-1.18-2.99-2.24-4.56-3.24c-0.91-0.59-1.86-1.16-2.81-1.68c-0.97-0.54-1.95-1.07-2.92-1.56   c-2-0.97-4.04-1.88-6.17-2.67c-1.86-0.7-3.79-1.32-5.76-1.84c-1.52-0.45-3.08-0.84-4.67-1.16c-3.26-0.68-6.62-1.16-10.11-1.45   c-5.89-0.48-12.11-0.39-18.59,0.29c0.25-1.38,0.52-2.77,0.79-4.1c0.23-1.11,0.45-2.2,0.7-3.29c0.36-1.72,0.77-3.45,1.18-5.15   c0.25-1.04,0.5-2.06,0.75-3.11c0.48-1.84,0.98-3.67,1.47-5.51c0.25-0.84,0.45-1.68,0.7-2.52c0.77-2.61,1.56-5.21,2.4-7.78   c0.09-0.32,0.2-0.63,0.32-0.93c0.66-2.02,1.36-4.01,2.06-5.98c18.88-0.32,35.95,2.86,50.73,9.43c0.95,0.43,1.88,0.86,2.81,1.29   c3.42,1.63,6.71,3.47,9.86,5.46c5.62,3.58,10.81,7.73,15.53,12.47c5.3,5.3,9.88,11.18,13.74,17.61c0.43,0.7,0.84,1.43,1.25,2.15   c1.22,2.15,2.36,4.35,3.4,6.64c0.39,0.75,0.73,1.52,1.04,2.31c0.39,0.88,0.75,1.75,1.11,2.65c0.68,1.68,1.29,3.35,1.88,5.08   c4.33,12.74,6.39,26.98,6.14,42.37C540.54,565.69,538.57,566.37,536.55,567.05z M609.18,521.34c-0.32,0.39-0.63,0.77-0.95,1.16   c-0.84,1.02-1.7,2.04-2.58,3.04c-0.41,0.45-0.82,0.91-1.25,1.34c-0.91,1-1.84,1.95-2.81,2.92c-0.39,0.39-0.77,0.77-1.18,1.16   c-1.36,1.34-2.79,2.65-4.28,3.94c-2.95,2.56-6.08,5.06-9.41,7.44c-1.68,1.2-3.38,2.38-5.15,3.54c-2.47,1.61-5.06,3.17-7.71,4.69   c-0.02,0.02-0.05,0.02-0.07,0.05c-1.2-16.91-4.87-32.76-10.9-47.15c-0.86-2.06-1.77-4.08-2.74-6.08v-0.02   c-1.2-2.45-2.45-4.85-3.76-7.21c-0.66-1.18-1.34-2.34-2.04-3.49c-1.02-1.66-2.04-3.29-3.11-4.9c0-0.02-0.05-0.05-0.05-0.05   c-1.09-1.61-2.2-3.2-3.33-4.74c-0.02-0.02-0.02-0.05-0.05-0.05c-1.16-1.56-2.36-3.08-3.56-4.56c-2.47-3.01-5.1-5.92-7.87-8.68   c-12.76-12.76-28.25-22.47-45.7-28.86c-0.97-0.36-1.97-0.73-2.99-1.04c-0.45-0.16-0.91-0.32-1.38-0.48c-0.66-0.23-1.32-0.43-2-0.63   c-0.59-0.18-1.18-0.36-1.77-0.54c-1.41-0.41-2.83-0.82-4.26-1.18c-0.52-0.14-1.02-0.27-1.54-0.41c-1.52-0.39-3.06-0.75-4.6-1.09   c-0.43-0.09-0.88-0.18-1.32-0.29c-1.75-0.36-3.54-0.7-5.33-1.02c-0.29-0.05-0.61-0.09-0.93-0.16c-1.84-0.29-3.69-0.57-5.55-0.82   c-3.17-0.43-6.35-0.75-9.59-0.97h-0.02c1.2-2.09,2.43-4.1,3.69-6.08c0.64-1,1.27-1.97,1.9-2.95c3.2-4.81,6.57-9.27,10.13-13.35   c1.25-1.43,2.52-2.81,3.79-4.15c0.41-0.43,0.84-0.82,1.25-1.25c0.88-0.91,1.79-1.79,2.72-2.63c0.48-0.45,0.95-0.88,1.43-1.32   c0.88-0.79,1.79-1.59,2.72-2.33h0.02c0.45-0.41,0.88-0.77,1.36-1.13c0.23-0.18,0.45-0.34,0.68-0.52c0.68,0.14,1.36,0.27,2.04,0.45   c0.45,0.09,0.91,0.2,1.38,0.29c0.02,0,0.04,0,0.04,0c1.97,0.41,3.92,0.88,5.85,1.38c1.04,0.25,2.06,0.52,3.06,0.82   c1.25,0.32,2.47,0.68,3.69,1.04c1.22,0.34,2.43,0.73,3.63,1.11c1.2,0.39,2.4,0.77,3.58,1.18c17.75,6.1,34.03,14.87,48.26,26.02   c0.66,0.52,1.32,1.02,1.95,1.56c0.27,0.2,0.54,0.41,0.79,0.63c0.2,0.18,0.43,0.36,0.66,0.54c0.2,0.16,0.41,0.34,0.63,0.54   c0.82,0.7,1.65,1.41,2.47,2.11c0.61,0.54,1.22,1.09,1.81,1.63c0.66,0.54,1.29,1.13,1.9,1.72c0.14,0.11,0.25,0.25,0.39,0.36   c0.14,0.11,0.27,0.23,0.41,0.36c0.52,0.5,1.04,1,1.54,1.5c1.04,1.02,2.04,2.04,3.06,3.08c0.66,0.68,1.31,1.34,1.95,2.02   c0.66,0.7,1.32,1.43,1.95,2.15c0.57,0.61,1.11,1.22,1.65,1.84c0.7,0.79,1.38,1.61,2.06,2.43c0.75,0.88,1.5,1.79,2.22,2.7   c0.07,0.09,0.16,0.18,0.23,0.29c0.14,0.16,0.27,0.32,0.39,0.48c0.14,0.18,0.25,0.34,0.39,0.52c0.18,0.2,0.34,0.43,0.52,0.66   c15.3,19.72,26.02,43.25,31.49,69.25c0.14,0.57,0.27,1.13,0.39,1.72C609.39,521.05,609.3,521.21,609.18,521.34z"/>
	<path class="st0" d="M669.1,369.69c0.02,0,0.02,0.02,0.02,0.02s0.02-0.02,0.05-0.02v-0.02   C669.15,369.66,669.12,369.69,669.1,369.69z"/>
	<path class="st0" d="M631.63,326.21c-0.41,1.47-0.82,2.95-1.25,4.42c-0.02,0.07-0.05,0.14-0.07,0.23h-0.02   C630.74,329.31,631.17,327.75,631.63,326.21z"/>
	<path class="st0" d="M632.92,321.33c0,0.09-0.02,0.16-0.05,0.23c-0.39,1.52-0.79,3.04-1.22,4.53   C632.08,324.51,632.51,322.92,632.92,321.33z"/>
	<path class="st0" d="M638.7,293.75c-0.09,0.61-0.18,1.22-0.29,1.84c-0.16,0.95-0.32,1.9-0.48,2.83c-0.27,1.54-0.57,3.06-0.86,4.6   c-0.23,1.18-0.45,2.36-0.7,3.56c-0.07,0.34-0.14,0.7-0.23,1.07c-0.23,1.09-0.45,2.18-0.7,3.26c-0.52,2.34-1.07,4.69-1.63,7.05   c-0.04,0.2-0.11,0.43-0.16,0.63c-0.23,0.91-0.48,1.84-0.7,2.74h-0.02c0.82-3.17,1.56-6.35,2.29-9.52   C636.57,305.78,637.73,299.75,638.7,293.75z"/>
	<path class="st0" d="M640.45,280.98c-0.02,0.23-0.05,0.45-0.07,0.68c-0.05,0.25-0.07,0.5-0.11,0.75   C640.33,281.93,640.38,281.46,640.45,280.98z"/>
	<path class="st0" d="M673.7,368.4c-1.52,0.43-3.01,0.86-4.51,1.29h-0.02c-0.02,0-0.05,0.02-0.05,0.02s0-0.02-0.02-0.02   c0.02,0,0.05-0.02,0.07-0.02C670.69,369.21,672.18,368.8,673.7,368.4z"/>
	<path class="st1" d="M647.18,341.76c-0.14,0.39-0.25,0.75-0.36,1.13c-0.14,0.48-0.29,0.93-0.45,1.38c-0.52,1.72-1.09,3.47-1.7,5.21   l-0.48,1.5c-0.14,0.39-0.32,0.93-0.52,1.47c-2.58,7.46-5.44,14.87-8.57,22.22c-0.14-0.2-0.29-0.41-0.45-0.59   c-0.57-0.73-1.13-1.43-1.75-2.11c-0.73-0.84-1.5-1.63-2.27-2.43c-0.02-0.02-0.02-0.02-0.05-0.05c-1.47-1.47-3.04-2.86-4.67-4.15   c-0.2-0.16-0.39-0.29-0.59-0.45h-0.02c-1.43-1.11-2.92-2.13-4.47-3.06c-0.34-0.23-0.68-0.41-1.02-0.61   c2.04-5.08,3.97-10.2,5.74-15.32c0.07-0.2,0.14-0.39,0.18-0.57c0.05-0.11,0.09-0.25,0.14-0.36l0.54-1.63   c0.02-0.07,0.05-0.11,0.07-0.18c0.54-1.61,1.06-3.22,1.56-4.83c0.36-1.09,0.68-2.2,1.02-3.29c0.23-0.7,0.43-1.43,0.64-2.13   c0.2-0.68,0.41-1.38,0.61-2.06c0.02,0.02,0.02,0.02,0.05,0.05c2.09,1.02,4.15,2.13,6.12,3.33c1.36,0.79,2.7,1.63,3.99,2.52   c1.32,0.88,2.58,1.81,3.85,2.77C645.3,340.22,646.25,340.97,647.18,341.76z"/>
	<path class="st1" d="M430.1,631.22c-7.77-0.39-15.62-1.04-23.44-1.95c-1.13-0.11-2.29-0.27-3.45-0.41l-1.38-0.18   c-1.88-0.25-3.72-0.63-5.49-1.16c-1.56-6.48-2.9-13.1-4.03-19.81l10.32,1.54c0.52,0.14,1.04,0.23,1.59,0.3   c0.86,0.11,1.72,0.23,2.58,0.32l0.39,0.07c0.57,0.07,1.11,0.14,1.68,0.2c5.44,0.64,10.93,1.13,16.44,1.5   C426.65,618.3,428.26,624.85,430.1,631.22z"/>
	<path class="st1" d="M679.41,419.85c-0.45,0.14-0.88,0.27-1.34,0.41c-0.11,0.05-0.23,0.09-0.34,0.11   c-0.25,0.09-0.52,0.18-0.79,0.25c-1.25,0.39-2.45,0.79-3.67,1.2c-0.32,0.11-0.61,0.23-0.93,0.32l-0.43,0.14   c-0.25,0.09-0.5,0.18-0.75,0.27c-8.14,2.79-16.32,6.01-24.39,9.66c0.98-7.44,1.25-14.6,0.79-21.33c5.6-2.33,11.22-4.44,16.82-6.37   c0.2-0.05,0.41-0.11,0.61-0.18c4.44-1.54,8.89-2.92,13.31-4.19C679.19,406.48,679.57,413.08,679.41,419.85z"/>
</g>
</svg>